<svg width="153" height="44" viewBox="0 0 153 44" fill="none" xmlns="http://www.w3.org/2000/svg">
<g filter="url(#filter0_d_26936_1334)">
<path d="M31.2187 0V35.3H23.6135V32.9C21.9123 34.8 19.5107 36 16.1083 36C9.50379 36 4 30.2 4 22.7C4 15.2 9.50379 9.4 16.1083 9.4C19.5107 9.4 22.0124 10.6 23.6135 12.5V0H31.2187ZM23.6135 22.7C23.6135 18.9 21.1118 16.5 17.6094 16.5C14.107 16.5 11.6052 18.9 11.6052 22.7C11.6052 26.5 14.107 28.9 17.6094 28.9C21.1118 28.8 23.6135 26.5 23.6135 22.7Z" fill="#FFC700"/>
<path d="M47.7302 29.1999C49.8316 29.1999 51.5328 28.3999 52.5335 27.2999L58.6377 30.7999C56.136 34.1999 52.4334 35.9999 47.6301 35.9999C39.0242 35.9999 33.6205 30.1999 33.6205 22.6999C33.6205 15.1999 39.0242 9.3999 47.0297 9.3999C54.4348 9.3999 59.8385 15.0999 59.8385 22.6999C59.8385 23.7999 59.7385 24.7999 59.5383 25.6999H41.626C42.6267 28.2999 44.9283 29.1999 47.7302 29.1999ZM52.3334 20.0999C51.5328 17.1999 49.2312 16.0999 46.9296 16.0999C44.0276 16.0999 42.1263 17.4999 41.4259 20.0999H52.3334Z" fill="#FFC700"/>
<path d="M86.1564 10.1001L76.85 35.3001H68.2441L58.9377 10.1001H67.3435L72.6471 26.1001L77.9508 10.1001C77.9508 10.1001 86.1564 10.1001 86.1564 10.1001Z" fill="#FFC700"/>
<path d="M87.4573 10.1001H95.0626V35.3001H87.4573V10.1001Z" fill="#FFC700"/>
<path d="M97.6646 22.6999C97.6646 15.1999 103.368 9.3999 111.074 9.3999C115.977 9.3999 120.28 11.9999 122.482 15.8999L115.877 19.6999C114.976 17.8999 113.175 16.8999 110.974 16.8999C107.671 16.8999 105.27 19.2999 105.27 22.6999C105.27 26.1999 107.671 28.4999 110.974 28.4999C113.175 28.4999 115.077 27.3999 115.877 25.6999L122.482 29.4999C120.38 33.3999 116.077 35.9999 111.074 35.9999C103.368 35.9999 97.6646 30.1999 97.6646 22.6999Z" fill="#FFC700"/>
<path d="M136.892 29.1999C138.993 29.1999 140.694 28.3999 141.695 27.2999L147.799 30.7999C145.297 34.1999 141.595 35.9999 136.792 35.9999C128.186 35.9999 122.782 30.1999 122.782 22.6999C122.782 15.1999 128.286 9.3999 136.191 9.3999C143.596 9.3999 149 15.0999 149 22.6999C149 23.7999 148.9 24.7999 148.7 25.6999H130.787C131.788 28.2999 134.09 29.1999 136.892 29.1999ZM141.595 20.0999C140.794 17.1999 138.493 16.0999 136.191 16.0999C133.289 16.0999 131.388 17.4999 130.687 20.0999H141.595Z" fill="#FFC700"/>
</g>
<defs>
<filter id="filter0_d_26936_1334" x="0" y="0" width="153" height="44" filterUnits="userSpaceOnUse" color-interpolation-filters="sRGB">
<feFlood flood-opacity="0" result="BackgroundImageFix"/>
<feColorMatrix in="SourceAlpha" type="matrix" values="0 0 0 0 0 0 0 0 0 0 0 0 0 0 0 0 0 0 127 0" result="hardAlpha"/>
<feOffset dy="4"/>
<feGaussianBlur stdDeviation="2"/>
<feComposite in2="hardAlpha" operator="out"/>
<feColorMatrix type="matrix" values="0 0 0 0 0 0 0 0 0 0 0 0 0 0 0 0 0 0 0.25 0"/>
<feBlend mode="normal" in2="BackgroundImageFix" result="effect1_dropShadow_26936_1334"/>
<feBlend mode="normal" in="SourceGraphic" in2="effect1_dropShadow_26936_1334" result="shape"/>
</filter>
</defs>
</svg>
