<svg width="146" height="36" viewBox="0 0 146 36" fill="none" xmlns="http://www.w3.org/2000/svg">
<path d="M27.2465 0V35.3H19.6413V32.9C17.9401 34.8 15.5385 36 12.1361 36C5.53157 36 0.027771 30.2 0.027771 22.7C0.027771 15.2 5.53157 9.4 12.1361 9.4C15.5385 9.4 18.0402 10.6 19.6413 12.5V0H27.2465ZM19.6413 22.7C19.6413 18.9 17.1396 16.5 13.6372 16.5C10.1347 16.5 7.63302 18.9 7.63302 22.7C7.63302 26.5 10.1347 28.9 13.6372 28.9C17.1396 28.8 19.6413 26.5 19.6413 22.7Z" fill="black"/>
<path d="M43.7576 29.1999C45.8591 29.1999 47.5602 28.3999 48.5609 27.2999L54.6651 30.7999C52.1634 34.1999 48.4609 35.9999 43.6575 35.9999C35.0516 35.9999 29.6479 30.1999 29.6479 22.6999C29.6479 15.1999 35.0516 9.3999 43.0571 9.3999C50.4622 9.3999 55.866 15.0999 55.866 22.6999C55.866 23.7999 55.7659 24.7999 55.5658 25.6999H37.6534C38.6541 28.2999 40.9557 29.1999 43.7576 29.1999ZM48.3608 20.0999C47.5602 17.1999 45.2587 16.0999 42.9571 16.0999C40.0551 16.0999 38.1538 17.4999 37.4533 20.0999H48.3608Z" fill="black"/>
<path d="M82.184 10.1001L72.8776 35.3001H64.2717L54.9653 10.1001H63.3711L68.6747 26.1001L73.9784 10.1001C73.9784 10.1001 82.184 10.1001 82.184 10.1001Z" fill="black"/>
<path d="M83.4858 10.1001H91.091V35.3001H83.4858V10.1001Z" fill="black"/>
<path d="M93.6928 22.6999C93.6928 15.1999 99.3967 9.3999 107.102 9.3999C112.005 9.3999 116.308 11.9999 118.51 15.8999L111.905 19.6999C111.005 17.8999 109.204 16.8999 107.002 16.8999C103.7 16.8999 101.298 19.2999 101.298 22.6999C101.298 26.1999 103.7 28.4999 107.002 28.4999C109.204 28.4999 111.105 27.3999 111.905 25.6999L118.51 29.4999C116.408 33.3999 112.106 35.9999 107.102 35.9999C99.3967 35.9999 93.6928 30.1999 93.6928 22.6999Z" fill="black"/>
<path d="M132.92 29.1999C135.021 29.1999 136.722 28.3999 137.723 27.2999L143.827 30.7999C141.326 34.1999 137.623 35.9999 132.82 35.9999C124.214 35.9999 118.81 30.1999 118.81 22.6999C118.81 15.1999 124.314 9.3999 132.219 9.3999C139.624 9.3999 145.028 15.0999 145.028 22.6999C145.028 23.7999 144.928 24.7999 144.728 25.6999H126.816C127.816 28.2999 130.118 29.1999 132.92 29.1999ZM137.623 20.0999C136.822 17.1999 134.521 16.0999 132.219 16.0999C129.317 16.0999 127.416 17.4999 126.715 20.0999H137.623Z" fill="black"/>
<path d="M83.4858 0V10.1L91.091 0H83.4858Z" fill="#510094"/>
</svg>
