<svg width="17" height="14" viewBox="0 0 17 14" fill="none" xmlns="http://www.w3.org/2000/svg">
<path d="M15.3278 5L11.8278 5.2L8.62783 0.3C8.52783 0.1 8.22783 0 8.02783 0C7.82783 0 7.52783 0.1 7.42783 0.3L4.22783 5.2H0.727832C0.327832 5.2 0.027832 5.5 0.027832 5.9C0.027832 6 0.027832 6 0.027832 6.1L1.92783 12.9C2.12783 13.6 2.62783 14 3.32783 14H12.7278C13.4278 14 13.9278 13.6 14.1278 12.9L16.0278 6C16.0278 5.9 16.0278 5.9 16.0278 5.8C16.0278 5.4 15.7278 5 15.3278 5ZM8.02783 1.9L10.2278 5.1H5.92783L8.02783 1.9Z" fill="black"/>
</svg>
