<svg width="17" height="16" viewBox="0 0 17 16" fill="none" xmlns="http://www.w3.org/2000/svg">
<path d="M15.7278 14.3L12.6278 11.2C13.5278 10 14.0278 8.6 14.0278 7C14.0278 3.1 10.9278 0 7.02777 0C3.12777 0 0.027771 3.1 0.027771 7C0.027771 10.9 3.12777 14 7.02777 14C8.62777 14 10.0278 13.5 11.2278 12.6L14.3278 15.7C14.5278 15.9 14.7278 16 15.0278 16C15.6278 16 16.0278 15.6 16.0278 15C16.0278 14.8 15.9278 14.5 15.7278 14.3ZM2.02777 7C2.02777 4.2 4.22777 2 7.02777 2C9.82777 2 12.0278 4.2 12.0278 7C12.0278 9.8 9.82777 12 7.02777 12C4.22777 12 2.02777 9.8 2.02777 7Z" fill="black"/>
</svg>
